<svg xmlns="http://www.w3.org/2000/svg" width="760" height="240" viewBox="0 0 760 240" role="img" aria-labelledby="title desc">
<title>NVDA YTD chart</title>
<desc>NVIDIA year-to-date closing-price chart.</desc>
<rect width="100%" height="100%" fill="#fffdf8" rx="14"/>
<text x="56" y="18" font-size="16" font-family="Georgia, serif" fill="#1f2937">NVDA YTD</text>
<text x="740" y="18" text-anchor="end" font-size="14" font-family="Georgia, serif" fill="#475569">+4.28%</text>
<line x1="56" y1="206" x2="740" y2="206" stroke="#cbd5e1" stroke-width="1"/>
<line x1="56" y1="28" x2="56" y2="206" stroke="#cbd5e1" stroke-width="1"/>
<text x="56" y="230" font-size="12" font-family="Georgia, serif" fill="#64748b">Jan 2</text>
<text x="740" y="230" text-anchor="end" font-size="12" font-family="Georgia, serif" fill="#64748b">Jul 7</text>
<text x="10" y="36" font-size="12" font-family="Georgia, serif" fill="#64748b">235.74</text>
<text x="10" y="206" font-size="12" font-family="Georgia, serif" fill="#64748b">165.17</text>
<polygon points="56.0,206.0 56.0,146.3 61.4,148.1 66.9,150.3 72.3,145.6 77.7,155.9 83.1,156.3 88.6,156.1 94.0,153.9 99.4,160.7 104.9,150.8 110.3,152.9 115.7,173.5 121.1,160.2 126.6,156.4 132.0,149.2 137.4,152.3 142.9,147.1 148.3,139.5 153.7,137.0 159.1,140.5 164.6,154.4 170.0,167.7 175.4,183.2 180.9,189.1 186.3,154.9 191.7,143.3 197.1,147.1 202.6,143.2 208.0,151.1 213.4,161.5 218.9,156.1 224.3,148.5 229.7,148.7 235.1,143.8 240.6,139.5 246.0,136.2 251.4,129.3 256.9,156.3 262.3,175.7 267.7,162.3 273.1,168.5 278.6,160.9 284.0,160.2 289.4,174.1 294.9,161.9 300.3,156.6 305.7,153.4 311.1,160.7 316.6,168.0 322.0,160.5 327.4,163.7 332.9,167.6 338.3,172.2 343.7,187.0 349.1,179.6 354.6,180.7 360.0,171.9 365.4,190.7 370.9,200.1 376.3,206.0 381.7,182.7 387.1,179.3 392.6,175.2 398.0,174.5 403.4,173.4 408.9,163.3 414.3,158.7 419.7,146.8 425.1,145.1 430.6,127.0 436.0,121.0 441.4,122.3 446.9,113.9 452.3,113.0 457.7,118.5 463.1,111.8 468.6,119.1 474.0,97.3 479.4,76.3 484.9,84.9 490.3,94.8 495.7,119.2 501.1,122.1 506.6,122.0 512.0,127.0 517.4,98.4 522.9,89.1 528.3,79.8 533.7,69.1 539.1,65.7 544.6,53.0 550.0,28.0 555.4,54.3 560.9,61.8 566.3,66.2 571.7,58.9 577.1,68.9 582.6,79.5 588.0,80.7 593.4,86.4 598.9,82.2 604.3,90.0 609.7,56.7 615.1,60.6 620.6,80.9 626.0,71.1 631.4,105.3 636.9,96.4 642.3,97.5 647.7,117.1 653.1,105.9 658.6,105.1 664.0,86.7 669.4,99.5 674.9,106.4 680.3,91.2 685.7,96.3 691.1,118.0 696.6,120.7 702.0,128.9 707.4,137.0 712.9,130.8 718.3,117.9 723.7,124.3 729.1,131.2 734.6,129.4 740.0,125.9 740.0,206.0" fill="#ccfbf1" opacity="0.35"/>
<polyline points="56.0,146.3 61.4,148.1 66.9,150.3 72.3,145.6 77.7,155.9 83.1,156.3 88.6,156.1 94.0,153.9 99.4,160.7 104.9,150.8 110.3,152.9 115.7,173.5 121.1,160.2 126.6,156.4 132.0,149.2 137.4,152.3 142.9,147.1 148.3,139.5 153.7,137.0 159.1,140.5 164.6,154.4 170.0,167.7 175.4,183.2 180.9,189.1 186.3,154.9 191.7,143.3 197.1,147.1 202.6,143.2 208.0,151.1 213.4,161.5 218.9,156.1 224.3,148.5 229.7,148.7 235.1,143.8 240.6,139.5 246.0,136.2 251.4,129.3 256.9,156.3 262.3,175.7 267.7,162.3 273.1,168.5 278.6,160.9 284.0,160.2 289.4,174.1 294.9,161.9 300.3,156.6 305.7,153.4 311.1,160.7 316.6,168.0 322.0,160.5 327.4,163.7 332.9,167.6 338.3,172.2 343.7,187.0 349.1,179.6 354.6,180.7 360.0,171.9 365.4,190.7 370.9,200.1 376.3,206.0 381.7,182.7 387.1,179.3 392.6,175.2 398.0,174.5 403.4,173.4 408.9,163.3 414.3,158.7 419.7,146.8 425.1,145.1 430.6,127.0 436.0,121.0 441.4,122.3 446.9,113.9 452.3,113.0 457.7,118.5 463.1,111.8 468.6,119.1 474.0,97.3 479.4,76.3 484.9,84.9 490.3,94.8 495.7,119.2 501.1,122.1 506.6,122.0 512.0,127.0 517.4,98.4 522.9,89.1 528.3,79.8 533.7,69.1 539.1,65.7 544.6,53.0 550.0,28.0 555.4,54.3 560.9,61.8 566.3,66.2 571.7,58.9 577.1,68.9 582.6,79.5 588.0,80.7 593.4,86.4 598.9,82.2 604.3,90.0 609.7,56.7 615.1,60.6 620.6,80.9 626.0,71.1 631.4,105.3 636.9,96.4 642.3,97.5 647.7,117.1 653.1,105.9 658.6,105.1 664.0,86.7 669.4,99.5 674.9,106.4 680.3,91.2 685.7,96.3 691.1,118.0 696.6,120.7 702.0,128.9 707.4,137.0 712.9,130.8 718.3,117.9 723.7,124.3 729.1,131.2 734.6,129.4 740.0,125.9" fill="none" stroke="#0f766e" stroke-width="3" stroke-linecap="round" stroke-linejoin="round"/>
</svg>
