<svg xmlns="http://www.w3.org/2000/svg" width="760" height="240" viewBox="0 0 760 240" role="img" aria-labelledby="title desc">
<title>AMZN YTD chart</title>
<desc>Amazon year-to-date closing-price chart.</desc>
<rect width="100%" height="100%" fill="#fffdf8" rx="14"/>
<text x="56" y="18" font-size="16" font-family="Georgia, serif" fill="#1f2937">AMZN YTD</text>
<text x="740" y="18" text-anchor="end" font-size="14" font-family="Georgia, serif" fill="#475569">+4.86%</text>
<line x1="56" y1="206" x2="740" y2="206" stroke="#cbd5e1" stroke-width="1"/>
<line x1="56" y1="28" x2="56" y2="206" stroke="#cbd5e1" stroke-width="1"/>
<text x="56" y="230" font-size="12" font-family="Georgia, serif" fill="#64748b">Jan 2</text>
<text x="740" y="230" text-anchor="end" font-size="12" font-family="Georgia, serif" fill="#64748b">Jun 17</text>
<text x="10" y="36" font-size="12" font-family="Georgia, serif" fill="#64748b">274.99</text>
<text x="10" y="206" font-size="12" font-family="Georgia, serif" fill="#64748b">198.79</text>
<polygon points="56.0,206.0 56.0,141.3 62.0,125.9 68.0,107.6 74.0,106.1 80.0,95.0 86.0,92.5 92.0,94.6 98.0,103.7 104.0,117.6 110.0,114.0 116.0,111.8 122.0,130.8 128.0,130.0 134.0,123.0 140.0,111.7 146.0,113.4 152.0,98.8 158.0,102.7 164.0,105.7 170.0,111.4 176.0,102.8 182.0,113.0 188.0,126.1 194.0,150.2 200.0,179.1 206.0,182.8 212.0,186.9 218.0,193.6 224.0,204.1 230.0,206.0 236.0,200.5 242.0,192.0 248.0,191.8 254.0,179.6 260.0,190.9 266.0,183.2 272.0,178.3 278.0,184.7 284.0,179.8 290.0,183.6 296.0,182.8 302.0,163.9 308.0,158.9 314.0,172.3 320.0,171.7 326.0,169.7 332.0,173.6 338.0,180.9 344.0,185.3 350.0,175.7 356.0,167.7 362.0,180.1 368.0,182.7 374.0,190.6 380.0,179.5 386.0,186.3 392.0,175.8 398.0,185.6 404.0,204.7 410.0,201.0 416.0,183.9 422.0,178.5 428.0,180.4 434.0,173.3 440.0,171.0 446.0,153.5 452.0,124.6 458.0,113.5 464.0,110.0 470.0,88.7 476.0,89.9 482.0,87.1 488.0,85.1 494.0,90.4 500.0,86.6 506.0,73.9 512.0,74.5 518.0,53.7 524.0,60.4 530.0,63.7 536.0,55.9 542.0,51.2 548.0,43.7 554.0,34.9 560.0,31.4 566.0,28.0 572.0,36.9 578.0,33.4 584.0,42.0 590.0,49.4 596.0,39.4 602.0,46.2 608.0,53.3 614.0,51.7 620.0,64.6 626.0,51.3 632.0,43.3 638.0,48.3 644.0,50.7 650.0,35.3 656.0,30.3 662.0,38.2 668.0,60.1 674.0,71.1 680.0,86.3 686.0,77.5 692.0,95.6 698.0,97.5 704.0,99.9 710.0,114.4 716.0,106.2 722.0,113.1 728.0,95.7 734.0,95.7 740.0,115.6 740.0,206.0" fill="#ccfbf1" opacity="0.35"/>
<polyline points="56.0,141.3 62.0,125.9 68.0,107.6 74.0,106.1 80.0,95.0 86.0,92.5 92.0,94.6 98.0,103.7 104.0,117.6 110.0,114.0 116.0,111.8 122.0,130.8 128.0,130.0 134.0,123.0 140.0,111.7 146.0,113.4 152.0,98.8 158.0,102.7 164.0,105.7 170.0,111.4 176.0,102.8 182.0,113.0 188.0,126.1 194.0,150.2 200.0,179.1 206.0,182.8 212.0,186.9 218.0,193.6 224.0,204.1 230.0,206.0 236.0,200.5 242.0,192.0 248.0,191.8 254.0,179.6 260.0,190.9 266.0,183.2 272.0,178.3 278.0,184.7 284.0,179.8 290.0,183.6 296.0,182.8 302.0,163.9 308.0,158.9 314.0,172.3 320.0,171.7 326.0,169.7 332.0,173.6 338.0,180.9 344.0,185.3 350.0,175.7 356.0,167.7 362.0,180.1 368.0,182.7 374.0,190.6 380.0,179.5 386.0,186.3 392.0,175.8 398.0,185.6 404.0,204.7 410.0,201.0 416.0,183.9 422.0,178.5 428.0,180.4 434.0,173.3 440.0,171.0 446.0,153.5 452.0,124.6 458.0,113.5 464.0,110.0 470.0,88.7 476.0,89.9 482.0,87.1 488.0,85.1 494.0,90.4 500.0,86.6 506.0,73.9 512.0,74.5 518.0,53.7 524.0,60.4 530.0,63.7 536.0,55.9 542.0,51.2 548.0,43.7 554.0,34.9 560.0,31.4 566.0,28.0 572.0,36.9 578.0,33.4 584.0,42.0 590.0,49.4 596.0,39.4 602.0,46.2 608.0,53.3 614.0,51.7 620.0,64.6 626.0,51.3 632.0,43.3 638.0,48.3 644.0,50.7 650.0,35.3 656.0,30.3 662.0,38.2 668.0,60.1 674.0,71.1 680.0,86.3 686.0,77.5 692.0,95.6 698.0,97.5 704.0,99.9 710.0,114.4 716.0,106.2 722.0,113.1 728.0,95.7 734.0,95.7 740.0,115.6" fill="none" stroke="#0f766e" stroke-width="3" stroke-linecap="round" stroke-linejoin="round"/>
</svg>
