<svg xmlns="http://www.w3.org/2000/svg" width="760" height="240" viewBox="0 0 760 240" role="img" aria-labelledby="title desc">
<title>TSLA YTD chart</title>
<desc>Tesla year-to-date closing-price chart.</desc>
<rect width="100%" height="100%" fill="#fffdf8" rx="14"/>
<text x="56" y="18" font-size="16" font-family="Georgia, serif" fill="#1f2937">TSLA YTD</text>
<text x="740" y="18" text-anchor="end" font-size="14" font-family="Georgia, serif" fill="#475569">-14.28%</text>
<line x1="56" y1="206" x2="740" y2="206" stroke="#cbd5e1" stroke-width="1"/>
<line x1="56" y1="28" x2="56" y2="206" stroke="#cbd5e1" stroke-width="1"/>
<text x="56" y="230" font-size="12" font-family="Georgia, serif" fill="#64748b">Jan 2</text>
<text x="740" y="230" text-anchor="end" font-size="12" font-family="Georgia, serif" fill="#64748b">Jun 24</text>
<text x="10" y="36" font-size="12" font-family="Georgia, serif" fill="#64748b">451.67</text>
<text x="10" y="206" font-size="12" font-family="Georgia, serif" fill="#64748b">343.25</text>
<polygon points="56.0,206.0 56.0,50.3 61.8,28.0 67.6,58.7 73.4,61.3 79.2,54.1 85.0,38.9 90.8,32.4 96.6,35.3 102.4,48.5 108.2,49.5 114.0,51.3 119.8,81.2 125.6,61.2 131.4,31.8 137.2,32.3 142.9,55.0 148.7,62.1 154.5,61.2 160.3,85.6 166.1,62.9 171.9,77.0 177.7,76.8 183.5,103.0 189.3,117.4 195.1,94.6 200.9,84.4 206.7,71.4 212.5,66.4 218.3,84.8 224.1,84.2 229.9,95.4 235.7,94.2 241.5,93.6 247.3,93.4 253.1,113.1 258.9,97.4 264.7,84.3 270.5,98.7 276.3,108.7 282.1,107.4 287.9,125.3 293.7,103.1 299.5,103.7 305.3,118.2 311.1,115.0 316.8,114.1 322.6,100.0 328.4,121.0 334.2,127.3 340.0,120.1 345.8,114.0 351.6,124.7 357.4,145.2 363.2,165.4 369.0,144.3 374.8,140.7 380.6,135.9 386.4,158.6 392.2,175.5 398.0,186.2 403.8,159.2 409.6,143.6 415.4,177.5 421.2,190.3 427.0,200.4 432.8,206.0 438.6,202.1 444.4,196.6 450.2,190.9 456.0,171.6 461.8,126.0 467.6,131.1 473.4,111.8 479.2,125.1 484.9,135.1 490.7,133.3 496.5,156.0 502.3,151.7 508.1,147.8 513.9,152.2 519.7,157.5 525.5,143.0 531.3,127.9 537.1,125.1 542.9,130.3 548.7,114.9 554.5,93.5 560.3,66.3 566.1,39.0 571.9,57.9 577.7,38.5 583.5,41.7 589.3,76.3 595.1,96.4 600.9,106.1 606.7,84.5 612.5,83.5 618.3,70.1 624.1,57.7 629.9,46.6 635.7,43.7 641.5,54.1 647.3,86.8 653.1,73.9 658.8,73.9 664.6,82.5 670.4,127.6 676.2,98.1 682.0,118.3 687.8,143.1 693.6,114.2 699.4,102.3 705.2,94.5 711.0,105.2 716.8,118.8 722.6,112.0 728.4,104.5 734.2,143.0 740.0,153.0 740.0,206.0" fill="#fee2e2" opacity="0.35"/>
<polyline points="56.0,50.3 61.8,28.0 67.6,58.7 73.4,61.3 79.2,54.1 85.0,38.9 90.8,32.4 96.6,35.3 102.4,48.5 108.2,49.5 114.0,51.3 119.8,81.2 125.6,61.2 131.4,31.8 137.2,32.3 142.9,55.0 148.7,62.1 154.5,61.2 160.3,85.6 166.1,62.9 171.9,77.0 177.7,76.8 183.5,103.0 189.3,117.4 195.1,94.6 200.9,84.4 206.7,71.4 212.5,66.4 218.3,84.8 224.1,84.2 229.9,95.4 235.7,94.2 241.5,93.6 247.3,93.4 253.1,113.1 258.9,97.4 264.7,84.3 270.5,98.7 276.3,108.7 282.1,107.4 287.9,125.3 293.7,103.1 299.5,103.7 305.3,118.2 311.1,115.0 316.8,114.1 322.6,100.0 328.4,121.0 334.2,127.3 340.0,120.1 345.8,114.0 351.6,124.7 357.4,145.2 363.2,165.4 369.0,144.3 374.8,140.7 380.6,135.9 386.4,158.6 392.2,175.5 398.0,186.2 403.8,159.2 409.6,143.6 415.4,177.5 421.2,190.3 427.0,200.4 432.8,206.0 438.6,202.1 444.4,196.6 450.2,190.9 456.0,171.6 461.8,126.0 467.6,131.1 473.4,111.8 479.2,125.1 484.9,135.1 490.7,133.3 496.5,156.0 502.3,151.7 508.1,147.8 513.9,152.2 519.7,157.5 525.5,143.0 531.3,127.9 537.1,125.1 542.9,130.3 548.7,114.9 554.5,93.5 560.3,66.3 566.1,39.0 571.9,57.9 577.7,38.5 583.5,41.7 589.3,76.3 595.1,96.4 600.9,106.1 606.7,84.5 612.5,83.5 618.3,70.1 624.1,57.7 629.9,46.6 635.7,43.7 641.5,54.1 647.3,86.8 653.1,73.9 658.8,73.9 664.6,82.5 670.4,127.6 676.2,98.1 682.0,118.3 687.8,143.1 693.6,114.2 699.4,102.3 705.2,94.5 711.0,105.2 716.8,118.8 722.6,112.0 728.4,104.5 734.2,143.0 740.0,153.0" fill="none" stroke="#b91c1c" stroke-width="3" stroke-linecap="round" stroke-linejoin="round"/>
</svg>
