<svg xmlns="http://www.w3.org/2000/svg" width="760" height="240" viewBox="0 0 760 240" role="img" aria-labelledby="title desc">
<title>AMZN YTD chart</title>
<desc>Amazon year-to-date closing-price chart.</desc>
<rect width="100%" height="100%" fill="#fffdf8" rx="14"/>
<text x="56" y="18" font-size="16" font-family="Georgia, serif" fill="#1f2937">AMZN YTD</text>
<text x="740" y="18" text-anchor="end" font-size="14" font-family="Georgia, serif" fill="#475569">+5.23%</text>
<line x1="56" y1="206" x2="740" y2="206" stroke="#cbd5e1" stroke-width="1"/>
<line x1="56" y1="28" x2="56" y2="206" stroke="#cbd5e1" stroke-width="1"/>
<text x="56" y="230" font-size="12" font-family="Georgia, serif" fill="#64748b">Jan 2</text>
<text x="740" y="230" text-anchor="end" font-size="12" font-family="Georgia, serif" fill="#64748b">Jun 30</text>
<text x="10" y="36" font-size="12" font-family="Georgia, serif" fill="#64748b">274.99</text>
<text x="10" y="206" font-size="12" font-family="Georgia, serif" fill="#64748b">198.79</text>
<polygon points="56.0,206.0 56.0,141.3 61.6,125.9 67.2,107.6 72.8,106.1 78.4,95.0 84.0,92.5 89.6,94.6 95.2,103.7 100.9,117.6 106.5,114.0 112.1,111.8 117.7,130.8 123.3,130.0 128.9,123.0 134.5,111.7 140.1,113.4 145.7,98.8 151.3,102.7 156.9,105.7 162.5,111.4 168.1,102.8 173.7,113.0 179.3,126.1 185.0,150.2 190.6,179.1 196.2,182.8 201.8,186.9 207.4,193.6 213.0,204.1 218.6,206.0 224.2,200.5 229.8,192.0 235.4,191.8 241.0,179.6 246.6,190.9 252.2,183.2 257.8,178.3 263.4,184.7 269.0,179.8 274.7,183.6 280.3,182.8 285.9,163.9 291.5,158.9 297.1,172.3 302.7,171.7 308.3,169.7 313.9,173.6 319.5,180.9 325.1,185.3 330.7,175.7 336.3,167.7 341.9,180.1 347.5,182.7 353.1,190.6 358.8,179.5 364.4,186.3 370.0,175.8 375.6,185.6 381.2,204.7 386.8,201.0 392.4,183.9 398.0,178.5 403.6,180.4 409.2,173.3 414.8,171.0 420.4,153.5 426.0,124.6 431.6,113.5 437.2,110.0 442.9,88.7 448.5,89.9 454.1,87.1 459.7,85.1 465.3,90.4 470.9,86.6 476.5,73.9 482.1,74.5 487.7,53.7 493.3,60.4 498.9,63.7 504.5,55.9 510.1,51.2 515.7,43.7 521.3,34.9 527.0,31.4 532.6,28.0 538.2,36.9 543.8,33.4 549.4,42.0 555.0,49.4 560.6,39.4 566.2,46.2 571.8,53.3 577.4,51.7 583.0,64.6 588.6,51.3 594.2,43.3 599.8,48.3 605.4,50.7 611.0,35.3 616.7,30.3 622.3,38.2 627.9,60.1 633.5,71.1 639.1,86.3 644.7,77.5 650.3,95.6 655.9,97.5 661.5,99.9 667.1,114.4 672.7,106.2 678.3,113.1 683.9,95.7 689.5,95.7 695.1,115.6 700.8,99.5 706.4,126.6 712.0,123.5 717.6,123.1 723.2,140.1 728.8,126.8 734.4,109.4 740.0,113.6 740.0,206.0" fill="#ccfbf1" opacity="0.35"/>
<polyline points="56.0,141.3 61.6,125.9 67.2,107.6 72.8,106.1 78.4,95.0 84.0,92.5 89.6,94.6 95.2,103.7 100.9,117.6 106.5,114.0 112.1,111.8 117.7,130.8 123.3,130.0 128.9,123.0 134.5,111.7 140.1,113.4 145.7,98.8 151.3,102.7 156.9,105.7 162.5,111.4 168.1,102.8 173.7,113.0 179.3,126.1 185.0,150.2 190.6,179.1 196.2,182.8 201.8,186.9 207.4,193.6 213.0,204.1 218.6,206.0 224.2,200.5 229.8,192.0 235.4,191.8 241.0,179.6 246.6,190.9 252.2,183.2 257.8,178.3 263.4,184.7 269.0,179.8 274.7,183.6 280.3,182.8 285.9,163.9 291.5,158.9 297.1,172.3 302.7,171.7 308.3,169.7 313.9,173.6 319.5,180.9 325.1,185.3 330.7,175.7 336.3,167.7 341.9,180.1 347.5,182.7 353.1,190.6 358.8,179.5 364.4,186.3 370.0,175.8 375.6,185.6 381.2,204.7 386.8,201.0 392.4,183.9 398.0,178.5 403.6,180.4 409.2,173.3 414.8,171.0 420.4,153.5 426.0,124.6 431.6,113.5 437.2,110.0 442.9,88.7 448.5,89.9 454.1,87.1 459.7,85.1 465.3,90.4 470.9,86.6 476.5,73.9 482.1,74.5 487.7,53.7 493.3,60.4 498.9,63.7 504.5,55.9 510.1,51.2 515.7,43.7 521.3,34.9 527.0,31.4 532.6,28.0 538.2,36.9 543.8,33.4 549.4,42.0 555.0,49.4 560.6,39.4 566.2,46.2 571.8,53.3 577.4,51.7 583.0,64.6 588.6,51.3 594.2,43.3 599.8,48.3 605.4,50.7 611.0,35.3 616.7,30.3 622.3,38.2 627.9,60.1 633.5,71.1 639.1,86.3 644.7,77.5 650.3,95.6 655.9,97.5 661.5,99.9 667.1,114.4 672.7,106.2 678.3,113.1 683.9,95.7 689.5,95.7 695.1,115.6 700.8,99.5 706.4,126.6 712.0,123.5 717.6,123.1 723.2,140.1 728.8,126.8 734.4,109.4 740.0,113.6" fill="none" stroke="#0f766e" stroke-width="3" stroke-linecap="round" stroke-linejoin="round"/>
</svg>
