<svg xmlns="http://www.w3.org/2000/svg" width="760" height="240" viewBox="0 0 760 240" role="img" aria-labelledby="title desc">
<title>AGG YTD chart</title>
<desc>iShares Core U.S. Aggregate Bond ETF year-to-date closing-price chart.</desc>
<rect width="100%" height="100%" fill="#fffdf8" rx="14"/>
<text x="56" y="18" font-size="16" font-family="Georgia, serif" fill="#1f2937">AGG YTD</text>
<text x="740" y="18" text-anchor="end" font-size="14" font-family="Georgia, serif" fill="#475569">-0.60%</text>
<line x1="56" y1="206" x2="740" y2="206" stroke="#cbd5e1" stroke-width="1"/>
<line x1="56" y1="28" x2="56" y2="206" stroke="#cbd5e1" stroke-width="1"/>
<text x="56" y="230" font-size="12" font-family="Georgia, serif" fill="#64748b">Jan 2</text>
<text x="740" y="230" text-anchor="end" font-size="12" font-family="Georgia, serif" fill="#64748b">Jun 25</text>
<text x="10" y="36" font-size="12" font-family="Georgia, serif" fill="#64748b">101.40</text>
<text x="10" y="206" font-size="12" font-family="Georgia, serif" fill="#64748b">97.63</text>
<polygon points="56.0,206.0 56.0,101.2 61.7,92.2 67.5,93.2 73.2,88.4 79.0,96.9 84.7,86.5 90.5,88.9 96.2,84.7 102.0,77.6 107.7,83.7 113.5,91.7 119.2,109.7 125.0,94.1 130.7,93.2 136.5,88.9 142.2,81.8 148.0,85.1 153.7,87.0 159.5,87.0 165.2,88.0 171.0,108.7 176.7,108.3 182.5,111.1 188.2,90.8 193.9,88.0 199.7,86.5 205.4,72.9 211.2,83.7 216.9,62.5 222.7,47.4 228.4,46.9 234.2,53.5 239.9,52.6 245.7,51.6 251.4,42.2 257.2,42.6 262.9,45.0 268.7,37.4 274.4,28.0 280.2,62.0 285.9,67.2 291.7,69.1 297.4,82.8 303.2,88.4 308.9,73.3 314.7,88.9 320.4,110.2 326.2,127.6 331.9,131.4 337.6,113.0 343.4,103.5 349.1,123.4 354.9,118.2 360.6,157.4 366.4,139.9 372.1,152.6 377.9,136.1 383.6,162.6 389.4,163.0 395.1,139.4 400.9,128.6 406.6,141.3 412.4,130.5 418.1,139.0 423.9,133.3 429.6,121.0 435.4,118.2 441.1,126.2 446.9,116.8 452.6,104.5 458.4,112.0 464.1,118.7 469.8,101.2 475.6,101.7 481.3,119.1 487.1,112.5 492.8,120.1 498.6,113.5 504.3,120.5 510.1,122.4 515.8,143.2 521.6,136.6 527.3,146.0 533.1,160.7 538.8,152.2 544.6,132.3 550.3,143.7 556.1,132.8 561.8,145.1 567.6,158.8 573.3,156.9 579.1,158.3 584.8,187.6 590.6,188.1 596.3,206.0 602.1,178.1 607.8,172.5 613.5,167.8 619.3,154.5 625.0,150.8 630.8,141.3 636.5,138.5 642.3,156.4 648.0,155.0 653.8,164.9 659.5,157.4 665.3,180.5 671.0,180.5 676.8,171.1 682.5,173.9 688.3,147.0 694.0,152.6 699.8,148.4 705.5,142.7 711.3,159.7 717.0,146.0 722.8,158.8 728.5,155.0 734.3,132.3 740.0,129.5 740.0,206.0" fill="#fee2e2" opacity="0.35"/>
<polyline points="56.0,101.2 61.7,92.2 67.5,93.2 73.2,88.4 79.0,96.9 84.7,86.5 90.5,88.9 96.2,84.7 102.0,77.6 107.7,83.7 113.5,91.7 119.2,109.7 125.0,94.1 130.7,93.2 136.5,88.9 142.2,81.8 148.0,85.1 153.7,87.0 159.5,87.0 165.2,88.0 171.0,108.7 176.7,108.3 182.5,111.1 188.2,90.8 193.9,88.0 199.7,86.5 205.4,72.9 211.2,83.7 216.9,62.5 222.7,47.4 228.4,46.9 234.2,53.5 239.9,52.6 245.7,51.6 251.4,42.2 257.2,42.6 262.9,45.0 268.7,37.4 274.4,28.0 280.2,62.0 285.9,67.2 291.7,69.1 297.4,82.8 303.2,88.4 308.9,73.3 314.7,88.9 320.4,110.2 326.2,127.6 331.9,131.4 337.6,113.0 343.4,103.5 349.1,123.4 354.9,118.2 360.6,157.4 366.4,139.9 372.1,152.6 377.9,136.1 383.6,162.6 389.4,163.0 395.1,139.4 400.9,128.6 406.6,141.3 412.4,130.5 418.1,139.0 423.9,133.3 429.6,121.0 435.4,118.2 441.1,126.2 446.9,116.8 452.6,104.5 458.4,112.0 464.1,118.7 469.8,101.2 475.6,101.7 481.3,119.1 487.1,112.5 492.8,120.1 498.6,113.5 504.3,120.5 510.1,122.4 515.8,143.2 521.6,136.6 527.3,146.0 533.1,160.7 538.8,152.2 544.6,132.3 550.3,143.7 556.1,132.8 561.8,145.1 567.6,158.8 573.3,156.9 579.1,158.3 584.8,187.6 590.6,188.1 596.3,206.0 602.1,178.1 607.8,172.5 613.5,167.8 619.3,154.5 625.0,150.8 630.8,141.3 636.5,138.5 642.3,156.4 648.0,155.0 653.8,164.9 659.5,157.4 665.3,180.5 671.0,180.5 676.8,171.1 682.5,173.9 688.3,147.0 694.0,152.6 699.8,148.4 705.5,142.7 711.3,159.7 717.0,146.0 722.8,158.8 728.5,155.0 734.3,132.3 740.0,129.5" fill="none" stroke="#b91c1c" stroke-width="3" stroke-linecap="round" stroke-linejoin="round"/>
</svg>
