<svg xmlns="http://www.w3.org/2000/svg" width="760" height="240" viewBox="0 0 760 240" role="img" aria-labelledby="title desc">
<title>IAU YTD chart</title>
<desc>iShares Gold Trust year-to-date closing-price chart.</desc>
<rect width="100%" height="100%" fill="#fffdf8" rx="14"/>
<text x="56" y="18" font-size="16" font-family="Georgia, serif" fill="#1f2937">IAU YTD</text>
<text x="740" y="18" text-anchor="end" font-size="14" font-family="Georgia, serif" fill="#475569">-0.07%</text>
<line x1="56" y1="206" x2="740" y2="206" stroke="#cbd5e1" stroke-width="1"/>
<line x1="56" y1="28" x2="56" y2="206" stroke="#cbd5e1" stroke-width="1"/>
<text x="56" y="230" font-size="12" font-family="Georgia, serif" fill="#64748b">Jan 2</text>
<text x="740" y="230" text-anchor="end" font-size="12" font-family="Georgia, serif" fill="#64748b">Jun 16</text>
<text x="10" y="36" font-size="12" font-family="Georgia, serif" fill="#64748b">101.57</text>
<text x="10" y="206" font-size="12" font-family="Georgia, serif" fill="#64748b">76.79</text>
<polygon points="56.0,206.0 56.0,171.7 62.1,156.3 68.1,149.8 74.2,155.6 80.2,152.2 86.3,147.8 92.3,136.3 98.4,137.3 104.4,131.0 110.5,134.7 116.5,137.9 122.6,114.3 128.6,104.9 134.7,92.7 140.7,83.9 146.8,73.9 152.8,57.4 158.9,30.3 165.0,28.0 171.0,102.5 177.1,128.6 183.1,89.3 189.2,90.1 195.2,107.3 201.3,87.8 207.3,70.7 213.4,77.3 219.4,69.7 225.5,93.3 231.5,77.0 237.6,98.0 243.6,83.5 249.7,81.5 255.8,68.4 261.8,49.5 267.9,59.4 273.9,61.0 280.0,55.2 286.0,46.0 292.1,36.5 298.1,68.6 304.2,63.3 310.2,71.5 316.3,61.0 322.3,62.4 328.4,54.7 334.4,56.9 340.5,70.5 346.5,79.6 352.6,80.0 358.7,81.9 364.7,103.1 370.8,130.0 376.8,149.2 382.9,163.0 388.9,163.1 395.0,145.1 401.0,167.9 407.1,147.4 413.1,147.5 419.2,124.3 425.2,113.4 431.3,125.9 437.3,128.3 443.4,122.2 449.5,118.0 455.5,113.1 461.6,114.3 467.6,116.8 473.7,102.6 479.7,109.4 485.8,110.0 491.8,101.5 497.9,107.0 503.9,125.2 510.0,116.9 516.0,123.0 522.1,120.1 528.1,125.0 534.2,136.5 540.2,143.1 546.3,133.7 552.4,134.7 558.4,147.2 564.5,142.1 570.5,123.3 576.6,122.2 582.6,119.2 588.7,117.9 594.7,120.4 600.8,124.1 606.8,128.8 612.9,143.4 618.9,141.6 625.0,151.9 631.0,143.2 637.1,143.9 643.2,148.4 649.2,148.4 655.3,156.1 661.3,150.0 667.4,143.5 673.4,152.3 679.5,151.2 685.5,157.2 691.6,152.2 697.6,174.2 703.7,173.0 709.7,182.4 715.8,206.0 721.8,189.2 727.9,188.8 733.9,173.9 740.0,172.2 740.0,206.0" fill="#fee2e2" opacity="0.35"/>
<polyline points="56.0,171.7 62.1,156.3 68.1,149.8 74.2,155.6 80.2,152.2 86.3,147.8 92.3,136.3 98.4,137.3 104.4,131.0 110.5,134.7 116.5,137.9 122.6,114.3 128.6,104.9 134.7,92.7 140.7,83.9 146.8,73.9 152.8,57.4 158.9,30.3 165.0,28.0 171.0,102.5 177.1,128.6 183.1,89.3 189.2,90.1 195.2,107.3 201.3,87.8 207.3,70.7 213.4,77.3 219.4,69.7 225.5,93.3 231.5,77.0 237.6,98.0 243.6,83.5 249.7,81.5 255.8,68.4 261.8,49.5 267.9,59.4 273.9,61.0 280.0,55.2 286.0,46.0 292.1,36.5 298.1,68.6 304.2,63.3 310.2,71.5 316.3,61.0 322.3,62.4 328.4,54.7 334.4,56.9 340.5,70.5 346.5,79.6 352.6,80.0 358.7,81.9 364.7,103.1 370.8,130.0 376.8,149.2 382.9,163.0 388.9,163.1 395.0,145.1 401.0,167.9 407.1,147.4 413.1,147.5 419.2,124.3 425.2,113.4 431.3,125.9 437.3,128.3 443.4,122.2 449.5,118.0 455.5,113.1 461.6,114.3 467.6,116.8 473.7,102.6 479.7,109.4 485.8,110.0 491.8,101.5 497.9,107.0 503.9,125.2 510.0,116.9 516.0,123.0 522.1,120.1 528.1,125.0 534.2,136.5 540.2,143.1 546.3,133.7 552.4,134.7 558.4,147.2 564.5,142.1 570.5,123.3 576.6,122.2 582.6,119.2 588.7,117.9 594.7,120.4 600.8,124.1 606.8,128.8 612.9,143.4 618.9,141.6 625.0,151.9 631.0,143.2 637.1,143.9 643.2,148.4 649.2,148.4 655.3,156.1 661.3,150.0 667.4,143.5 673.4,152.3 679.5,151.2 685.5,157.2 691.6,152.2 697.6,174.2 703.7,173.0 709.7,182.4 715.8,206.0 721.8,189.2 727.9,188.8 733.9,173.9 740.0,172.2" fill="none" stroke="#b91c1c" stroke-width="3" stroke-linecap="round" stroke-linejoin="round"/>
</svg>
