<svg xmlns="http://www.w3.org/2000/svg" width="760" height="240" viewBox="0 0 760 240" role="img" aria-labelledby="title desc">
<title>PLTR YTD chart</title>
<desc>Palantir year-to-date closing-price chart.</desc>
<rect width="100%" height="100%" fill="#fffdf8" rx="14"/>
<text x="56" y="18" font-size="16" font-family="Georgia, serif" fill="#1f2937">PLTR YTD</text>
<text x="740" y="18" text-anchor="end" font-size="14" font-family="Georgia, serif" fill="#475569">-31.07%</text>
<line x1="56" y1="206" x2="740" y2="206" stroke="#cbd5e1" stroke-width="1"/>
<line x1="56" y1="28" x2="56" y2="206" stroke="#cbd5e1" stroke-width="1"/>
<text x="56" y="230" font-size="12" font-family="Georgia, serif" fill="#64748b">Jan 2</text>
<text x="740" y="230" text-anchor="end" font-size="12" font-family="Georgia, serif" fill="#64748b">Jun 29</text>
<text x="10" y="36" font-size="12" font-family="Georgia, serif" fill="#64748b">181.68</text>
<text x="10" y="206" font-size="12" font-family="Georgia, serif" fill="#64748b">107.27</text>
<polygon points="56.0,206.0 56.0,61.1 61.7,46.3 67.3,32.7 73.0,28.0 78.6,39.5 84.3,38.0 89.9,33.4 95.6,34.5 101.2,35.8 106.9,39.0 112.5,53.6 118.2,59.5 123.8,67.1 129.5,65.7 135.1,56.9 140.8,62.0 146.4,66.2 152.1,86.2 157.8,99.3 163.4,111.9 169.1,109.1 174.7,84.9 180.4,128.8 186.0,151.6 191.7,137.5 197.3,120.7 203.0,128.9 208.6,138.0 214.3,153.7 219.9,148.3 225.6,144.4 231.2,138.8 236.9,139.9 242.5,139.1 248.2,150.2 253.9,154.4 259.5,141.6 265.2,137.4 270.8,134.4 276.5,115.3 282.1,110.4 287.8,96.2 293.4,97.4 299.1,86.7 304.7,88.4 310.4,101.1 316.0,100.0 321.7,95.4 327.3,101.5 333.0,97.3 338.6,91.6 344.3,97.2 350.0,90.2 355.6,102.2 361.3,77.9 366.9,92.3 372.6,91.9 378.2,109.6 383.9,120.4 389.5,133.6 395.2,112.7 400.8,112.2 406.5,107.5 412.1,108.7 417.8,103.6 423.4,125.9 429.1,150.5 434.7,156.3 440.4,146.0 446.0,138.0 451.7,122.6 457.4,121.1 463.0,112.4 468.7,113.6 474.3,113.4 480.0,97.5 485.6,123.9 491.3,120.3 496.9,120.3 502.6,124.9 508.2,132.6 513.9,129.8 519.5,118.0 525.2,113.3 530.8,137.5 536.5,142.6 542.1,134.8 547.8,133.0 553.5,135.1 559.1,137.3 564.8,151.5 570.4,142.7 576.1,142.1 581.7,139.3 587.4,139.0 593.0,134.5 598.7,133.9 604.3,135.2 610.0,135.8 615.6,145.6 621.3,119.7 626.9,88.1 632.6,78.3 638.2,98.6 643.9,122.4 649.6,123.6 655.2,138.4 660.9,136.1 666.5,146.7 672.2,151.1 677.8,149.0 683.5,156.4 689.1,140.4 694.8,143.9 700.4,150.1 706.1,155.3 711.7,176.7 717.4,183.4 723.0,191.1 728.7,206.0 734.3,192.5 740.0,185.8 740.0,206.0" fill="#fee2e2" opacity="0.35"/>
<polyline points="56.0,61.1 61.7,46.3 67.3,32.7 73.0,28.0 78.6,39.5 84.3,38.0 89.9,33.4 95.6,34.5 101.2,35.8 106.9,39.0 112.5,53.6 118.2,59.5 123.8,67.1 129.5,65.7 135.1,56.9 140.8,62.0 146.4,66.2 152.1,86.2 157.8,99.3 163.4,111.9 169.1,109.1 174.7,84.9 180.4,128.8 186.0,151.6 191.7,137.5 197.3,120.7 203.0,128.9 208.6,138.0 214.3,153.7 219.9,148.3 225.6,144.4 231.2,138.8 236.9,139.9 242.5,139.1 248.2,150.2 253.9,154.4 259.5,141.6 265.2,137.4 270.8,134.4 276.5,115.3 282.1,110.4 287.8,96.2 293.4,97.4 299.1,86.7 304.7,88.4 310.4,101.1 316.0,100.0 321.7,95.4 327.3,101.5 333.0,97.3 338.6,91.6 344.3,97.2 350.0,90.2 355.6,102.2 361.3,77.9 366.9,92.3 372.6,91.9 378.2,109.6 383.9,120.4 389.5,133.6 395.2,112.7 400.8,112.2 406.5,107.5 412.1,108.7 417.8,103.6 423.4,125.9 429.1,150.5 434.7,156.3 440.4,146.0 446.0,138.0 451.7,122.6 457.4,121.1 463.0,112.4 468.7,113.6 474.3,113.4 480.0,97.5 485.6,123.9 491.3,120.3 496.9,120.3 502.6,124.9 508.2,132.6 513.9,129.8 519.5,118.0 525.2,113.3 530.8,137.5 536.5,142.6 542.1,134.8 547.8,133.0 553.5,135.1 559.1,137.3 564.8,151.5 570.4,142.7 576.1,142.1 581.7,139.3 587.4,139.0 593.0,134.5 598.7,133.9 604.3,135.2 610.0,135.8 615.6,145.6 621.3,119.7 626.9,88.1 632.6,78.3 638.2,98.6 643.9,122.4 649.6,123.6 655.2,138.4 660.9,136.1 666.5,146.7 672.2,151.1 677.8,149.0 683.5,156.4 689.1,140.4 694.8,143.9 700.4,150.1 706.1,155.3 711.7,176.7 717.4,183.4 723.0,191.1 728.7,206.0 734.3,192.5 740.0,185.8" fill="none" stroke="#b91c1c" stroke-width="3" stroke-linecap="round" stroke-linejoin="round"/>
</svg>
