<svg xmlns="http://www.w3.org/2000/svg" width="760" height="240" viewBox="0 0 760 240" role="img" aria-labelledby="title desc">
<title>VOO YTD chart</title>
<desc>Vanguard S&P 500 ETF year-to-date closing-price chart.</desc>
<rect width="100%" height="100%" fill="#fffdf8" rx="14"/>
<text x="56" y="18" font-size="16" font-family="Georgia, serif" fill="#1f2937">VOO YTD</text>
<text x="740" y="18" text-anchor="end" font-size="14" font-family="Georgia, serif" fill="#475569">+8.39%</text>
<line x1="56" y1="206" x2="740" y2="206" stroke="#cbd5e1" stroke-width="1"/>
<line x1="56" y1="28" x2="56" y2="206" stroke="#cbd5e1" stroke-width="1"/>
<text x="56" y="230" font-size="12" font-family="Georgia, serif" fill="#64748b">Jan 2</text>
<text x="740" y="230" text-anchor="end" font-size="12" font-family="Georgia, serif" fill="#64748b">Jun 29</text>
<text x="10" y="36" font-size="12" font-family="Georgia, serif" fill="#64748b">698.26</text>
<text x="10" y="206" font-size="12" font-family="Georgia, serif" fill="#64748b">580.93</text>
<polygon points="56.0,206.0 56.0,134.1 61.7,127.8 67.3,122.1 73.0,125.2 78.6,125.4 84.3,118.9 89.9,117.4 95.6,119.4 101.2,124.1 106.9,121.5 112.5,122.3 118.2,141.9 123.8,131.1 129.5,126.1 135.1,125.7 140.8,120.8 146.4,116.8 152.1,117.0 157.8,119.0 163.4,122.1 169.1,116.9 174.7,125.3 180.4,130.2 186.0,142.0 191.7,123.6 197.3,119.1 203.0,121.8 208.6,121.9 214.3,136.9 219.9,136.3 225.6,134.6 231.2,129.8 236.9,132.3 242.5,125.5 248.2,135.2 253.9,128.2 259.5,120.1 265.2,125.6 270.8,130.0 276.5,129.6 282.1,138.0 287.8,131.3 293.4,136.4 299.1,149.1 304.7,141.0 310.4,142.6 316.0,143.6 321.7,158.1 327.3,163.3 333.0,154.0 338.6,151.4 344.3,164.4 350.0,166.8 355.6,180.2 361.3,170.3 366.9,173.5 372.6,168.5 378.2,184.8 383.9,202.9 389.5,206.0 395.2,180.8 400.8,173.6 406.5,172.5 412.1,168.5 417.8,167.9 423.4,144.7 429.1,139.1 434.7,139.7 440.4,130.5 446.0,118.9 451.7,111.2 457.4,109.0 463.0,97.0 468.7,98.9 474.3,105.4 480.0,95.3 485.6,99.3 491.3,91.5 496.9,89.8 502.6,94.8 508.2,94.8 513.9,85.2 519.5,82.2 525.2,85.9 530.8,78.0 536.5,63.8 542.1,67.0 547.8,58.7 553.5,56.4 559.1,57.7 564.8,52.0 570.4,44.0 576.1,56.6 581.7,57.4 587.4,63.9 593.0,53.3 598.7,51.4 604.3,47.3 610.0,40.5 615.6,40.6 621.3,34.6 626.9,32.2 632.6,29.5 638.2,28.0 643.9,35.4 649.6,31.3 655.2,58.7 660.9,56.2 666.5,59.2 672.2,75.3 677.8,58.4 683.5,52.7 689.1,34.7 694.8,40.9 700.4,53.6 706.1,43.4 711.7,46.4 717.4,61.3 723.0,62.2 728.7,62.2 734.3,70.5 740.0,54.2 740.0,206.0" fill="#ccfbf1" opacity="0.35"/>
<polyline points="56.0,134.1 61.7,127.8 67.3,122.1 73.0,125.2 78.6,125.4 84.3,118.9 89.9,117.4 95.6,119.4 101.2,124.1 106.9,121.5 112.5,122.3 118.2,141.9 123.8,131.1 129.5,126.1 135.1,125.7 140.8,120.8 146.4,116.8 152.1,117.0 157.8,119.0 163.4,122.1 169.1,116.9 174.7,125.3 180.4,130.2 186.0,142.0 191.7,123.6 197.3,119.1 203.0,121.8 208.6,121.9 214.3,136.9 219.9,136.3 225.6,134.6 231.2,129.8 236.9,132.3 242.5,125.5 248.2,135.2 253.9,128.2 259.5,120.1 265.2,125.6 270.8,130.0 276.5,129.6 282.1,138.0 287.8,131.3 293.4,136.4 299.1,149.1 304.7,141.0 310.4,142.6 316.0,143.6 321.7,158.1 327.3,163.3 333.0,154.0 338.6,151.4 344.3,164.4 350.0,166.8 355.6,180.2 361.3,170.3 366.9,173.5 372.6,168.5 378.2,184.8 383.9,202.9 389.5,206.0 395.2,180.8 400.8,173.6 406.5,172.5 412.1,168.5 417.8,167.9 423.4,144.7 429.1,139.1 434.7,139.7 440.4,130.5 446.0,118.9 451.7,111.2 457.4,109.0 463.0,97.0 468.7,98.9 474.3,105.4 480.0,95.3 485.6,99.3 491.3,91.5 496.9,89.8 502.6,94.8 508.2,94.8 513.9,85.2 519.5,82.2 525.2,85.9 530.8,78.0 536.5,63.8 542.1,67.0 547.8,58.7 553.5,56.4 559.1,57.7 564.8,52.0 570.4,44.0 576.1,56.6 581.7,57.4 587.4,63.9 593.0,53.3 598.7,51.4 604.3,47.3 610.0,40.5 615.6,40.6 621.3,34.6 626.9,32.2 632.6,29.5 638.2,28.0 643.9,35.4 649.6,31.3 655.2,58.7 660.9,56.2 666.5,59.2 672.2,75.3 677.8,58.4 683.5,52.7 689.1,34.7 694.8,40.9 700.4,53.6 706.1,43.4 711.7,46.4 717.4,61.3 723.0,62.2 728.7,62.2 734.3,70.5 740.0,54.2" fill="none" stroke="#0f766e" stroke-width="3" stroke-linecap="round" stroke-linejoin="round"/>
</svg>
