<svg xmlns="http://www.w3.org/2000/svg" width="760" height="240" viewBox="0 0 760 240" role="img" aria-labelledby="title desc">
<title>VOO YTD chart</title>
<desc>Vanguard S&P 500 ETF year-to-date closing-price chart.</desc>
<rect width="100%" height="100%" fill="#fffdf8" rx="14"/>
<text x="56" y="18" font-size="16" font-family="Georgia, serif" fill="#1f2937">VOO YTD</text>
<text x="740" y="18" text-anchor="end" font-size="14" font-family="Georgia, serif" fill="#475569">+8.12%</text>
<line x1="56" y1="206" x2="740" y2="206" stroke="#cbd5e1" stroke-width="1"/>
<line x1="56" y1="28" x2="56" y2="206" stroke="#cbd5e1" stroke-width="1"/>
<text x="56" y="230" font-size="12" font-family="Georgia, serif" fill="#64748b">Jan 2</text>
<text x="740" y="230" text-anchor="end" font-size="12" font-family="Georgia, serif" fill="#64748b">Jul 27</text>
<text x="10" y="36" font-size="12" font-family="Georgia, serif" fill="#64748b">698.26</text>
<text x="10" y="206" font-size="12" font-family="Georgia, serif" fill="#64748b">580.93</text>
<polygon points="56.0,206.0 56.0,134.1 60.9,127.8 65.8,122.1 70.7,125.2 75.5,125.4 80.4,118.9 85.3,117.4 90.2,119.4 95.1,124.1 100.0,121.5 104.9,122.3 109.7,141.9 114.6,131.1 119.5,126.1 124.4,125.7 129.3,120.8 134.2,116.8 139.1,117.0 143.9,119.0 148.8,122.1 153.7,116.9 158.6,125.3 163.5,130.2 168.4,142.0 173.3,123.6 178.1,119.1 183.0,121.8 187.9,121.9 192.8,136.9 197.7,136.3 202.6,134.6 207.5,129.8 212.3,132.3 217.2,125.5 222.1,135.2 227.0,128.2 231.9,120.1 236.8,125.6 241.7,130.0 246.5,129.6 251.4,138.0 256.3,131.3 261.2,136.4 266.1,149.1 271.0,141.0 275.9,142.6 280.7,143.6 285.6,158.1 290.5,163.3 295.4,154.0 300.3,151.4 305.2,164.4 310.1,166.8 314.9,180.2 319.8,170.3 324.7,173.5 329.6,168.5 334.5,184.8 339.4,202.9 344.3,206.0 349.1,180.8 354.0,173.6 358.9,172.5 363.8,168.5 368.7,167.9 373.6,144.7 378.5,139.1 383.3,139.7 388.2,130.5 393.1,118.9 398.0,111.2 402.9,109.0 407.8,97.0 412.7,98.9 417.5,105.4 422.4,95.3 427.3,99.3 432.2,91.5 437.1,89.8 442.0,94.8 446.9,94.8 451.7,85.2 456.6,82.2 461.5,85.9 466.4,78.0 471.3,63.8 476.2,67.0 481.1,58.7 485.9,56.4 490.8,57.7 495.7,52.0 500.6,44.0 505.5,56.6 510.4,57.4 515.3,63.9 520.1,53.3 525.0,51.4 529.9,47.3 534.8,40.5 539.7,40.6 544.6,34.6 549.5,32.2 554.3,29.5 559.2,28.0 564.1,35.4 569.0,31.3 573.9,58.7 578.8,56.2 583.7,59.2 588.5,75.3 593.4,58.4 598.3,52.7 603.2,34.7 608.1,40.9 613.0,53.6 617.9,43.4 622.7,46.4 627.6,61.3 632.5,62.2 637.4,62.2 642.3,70.5 647.2,54.2 652.1,45.4 656.9,47.4 661.8,48.4 666.7,39.6 671.6,45.0 676.5,47.7 681.4,39.5 686.3,34.7 691.1,42.8 696.0,38.9 700.9,34.8 705.8,40.3 710.7,50.9 715.6,52.3 720.5,43.8 725.3,45.0 730.2,57.8 735.1,57.0 740.0,56.7 740.0,206.0" fill="#ccfbf1" opacity="0.35"/>
<polyline points="56.0,134.1 60.9,127.8 65.8,122.1 70.7,125.2 75.5,125.4 80.4,118.9 85.3,117.4 90.2,119.4 95.1,124.1 100.0,121.5 104.9,122.3 109.7,141.9 114.6,131.1 119.5,126.1 124.4,125.7 129.3,120.8 134.2,116.8 139.1,117.0 143.9,119.0 148.8,122.1 153.7,116.9 158.6,125.3 163.5,130.2 168.4,142.0 173.3,123.6 178.1,119.1 183.0,121.8 187.9,121.9 192.8,136.9 197.7,136.3 202.6,134.6 207.5,129.8 212.3,132.3 217.2,125.5 222.1,135.2 227.0,128.2 231.9,120.1 236.8,125.6 241.7,130.0 246.5,129.6 251.4,138.0 256.3,131.3 261.2,136.4 266.1,149.1 271.0,141.0 275.9,142.6 280.7,143.6 285.6,158.1 290.5,163.3 295.4,154.0 300.3,151.4 305.2,164.4 310.1,166.8 314.9,180.2 319.8,170.3 324.7,173.5 329.6,168.5 334.5,184.8 339.4,202.9 344.3,206.0 349.1,180.8 354.0,173.6 358.9,172.5 363.8,168.5 368.7,167.9 373.6,144.7 378.5,139.1 383.3,139.7 388.2,130.5 393.1,118.9 398.0,111.2 402.9,109.0 407.8,97.0 412.7,98.9 417.5,105.4 422.4,95.3 427.3,99.3 432.2,91.5 437.1,89.8 442.0,94.8 446.9,94.8 451.7,85.2 456.6,82.2 461.5,85.9 466.4,78.0 471.3,63.8 476.2,67.0 481.1,58.7 485.9,56.4 490.8,57.7 495.7,52.0 500.6,44.0 505.5,56.6 510.4,57.4 515.3,63.9 520.1,53.3 525.0,51.4 529.9,47.3 534.8,40.5 539.7,40.6 544.6,34.6 549.5,32.2 554.3,29.5 559.2,28.0 564.1,35.4 569.0,31.3 573.9,58.7 578.8,56.2 583.7,59.2 588.5,75.3 593.4,58.4 598.3,52.7 603.2,34.7 608.1,40.9 613.0,53.6 617.9,43.4 622.7,46.4 627.6,61.3 632.5,62.2 637.4,62.2 642.3,70.5 647.2,54.2 652.1,45.4 656.9,47.4 661.8,48.4 666.7,39.6 671.6,45.0 676.5,47.7 681.4,39.5 686.3,34.7 691.1,42.8 696.0,38.9 700.9,34.8 705.8,40.3 710.7,50.9 715.6,52.3 720.5,43.8 725.3,45.0 730.2,57.8 735.1,57.0 740.0,56.7" fill="none" stroke="#0f766e" stroke-width="3" stroke-linecap="round" stroke-linejoin="round"/>
</svg>
